<?xml version="1.0" encoding="UTF-8" standalone="no"?>
<!DOCTYPE svg PUBLIC "-//W3C//DTD SVG 1.1//EN" "http://www.w3.org/Graphics/SVG/1.1/DTD/svg11.dtd">
<svg width="100%" height="100%" viewBox="0 0 128 128" version="1.1" xmlns="http://www.w3.org/2000/svg" xmlns:xlink="http://www.w3.org/1999/xlink" xml:space="preserve" xmlns:serif="http://www.serif.com/" style="fill-rule:evenodd;clip-rule:evenodd;stroke-linecap:round;stroke-linejoin:round;stroke-miterlimit:1.5;">
    <g>
        <g transform="matrix(-1.178571,0,0,1.178571,139.428571,-2.589286)">
            <path d="M64,33C57.23,57.356 42.177,75.686 22,90L48,90C53.07,84.948 56.311,78.305 58.61,69.675C61.165,60.085 62.556,48.041 64,33Z" style="fill:none;stroke:rgb(104,160,255);stroke-width:5.09px;"/>
        </g>
        <g transform="matrix(1.178571,0,0,1.178571,-11.428571,-2.589286)">
            <path d="M61.549,32.316C61.697,32.062 61.779,31.774 61.929,31.521C62.188,31.08 63.319,30.169 64.681,30.547C65.646,30.815 66.643,31.799 66.534,33.245C66.34,35.807 65.533,43.146 65.438,44.006C62.974,66.397 59.788,81.636 50.052,91.546C50.004,91.595 49.24,92.544 48,92.545C39.333,92.556 30.667,92.557 22,92.545C19.952,92.543 18.747,90.191 19.922,88.53C20.432,87.809 22.295,86.841 27.279,82.818C51.522,63.249 58.504,42.901 61.548,32.318L61.549,32.316ZM59.344,52.005C57.017,56.568 53.995,61.603 50.057,66.803C43.039,76.07 35.307,82.958 29.635,87.455L46.913,87.455C49.123,85.091 52.521,80.847 55.273,72.058C57.092,66.246 58.357,59.302 59.344,52.005Z" style="fill:rgb(104,160,255);"/>
        </g>
    </g>
    <g>
        <g transform="matrix(-1.178571,0,0,1.178571,139.428571,-2.589286)">
            <path d="M59,23L64,33L57,29" style="fill:none;stroke:rgb(104,160,255);stroke-width:3.39px;"/>
        </g>
        <g transform="matrix(1.178571,0,0,1.178571,-11.428571,-2.589286)">
            <path d="M59,23L64,33L57,29" style="fill:none;stroke:rgb(104,160,255);stroke-width:3.39px;"/>
        </g>
    </g>
</svg>
