<?xml version="1.0" encoding="UTF-8"?>
<svg version="1.1" xmlns="http://www.w3.org/2000/svg" width="800" height="800">
<path d="M0 0 C264 0 528 0 800 0 C800 264 800 528 800 800 C536 800 272 800 0 800 C0 536 0 272 0 0 Z " fill="#68A0FF" transform="translate(0,0)"/>
<path d="M0 0 C6.7134375 0.0928125 6.7134375 0.0928125 13.5625 0.1875 C13.5625 10.0875 13.5625 19.9875 13.5625 30.1875 C3.3325 30.1875 -6.8975 30.1875 -17.4375 30.1875 C-17.4375 30.8475 -17.4375 31.5075 -17.4375 32.1875 C-16.7775 32.39375 -16.1175 32.6 -15.4375 32.8125 C-4.96048747 37.61446408 0.29070208 45.77074524 4.80078125 56.046875 C8.80647928 67.30391358 7.47517221 80.50084291 2.5625 91.1875 C1.08379633 94.0200817 -0.55136517 96.61074965 -2.4375 99.1875 C-3.18 100.21875 -3.9225 101.25 -4.6875 102.3125 C-15.97860266 114.1168346 -32.25941206 117.7795215 -48.078125 118.44140625 C-56.10698279 118.61423383 -63.82699973 118.1141824 -71.73828125 116.625 C-74.39576623 116.19426437 -76.7535424 115.96765364 -79.4375 116.1875 C-81.87821647 118.29838992 -83.23379972 119.91751676 -83.75390625 123.16015625 C-83.90866658 128.61729924 -83.90866658 128.61729924 -81.4375 133.1875 C-74.31342368 136.65236976 -67.74241285 136.6128661 -59.91796875 136.59375 C-57.93968338 136.61031197 -55.96139799 136.62689064 -53.98312092 136.64441681 C-50.53045518 136.67105866 -47.07774986 136.67873028 -43.625 136.6875 C-39.51202695 136.697976 -35.39928923 136.71203485 -31.28645325 136.74841309 C-28.73321591 136.76974119 -26.17982934 136.77836359 -23.62651062 136.77209473 C-10.81031375 136.88241862 -0.55660985 140.20531895 10.3125 146.875 C19.29843393 156.11054321 22.06619768 166.91416322 21.984375 179.38061523 C21.65532873 189.81592797 18.44452452 199.21132872 11.5625 207.1875 C6.85382481 211.55425894 1.45432889 214.69520424 -4.4375 217.1875 C-5.60732422 217.69603516 -5.60732422 217.69603516 -6.80078125 218.21484375 C-34.05186525 228.66569362 -76.35038765 228.51816652 -103.25708008 217.20898438 C-110.71192863 213.71653265 -115.99910702 208.34016255 -119.5078125 200.92578125 C-121.91145246 193.84615264 -121.50163834 185.48637934 -118.4375 178.6875 C-114.00873444 171.13254699 -107.89622492 167.88894134 -99.63671875 165.6328125 C-97.4375 165.1875 -97.4375 165.1875 -94.4375 165.1875 C-94.4375 163.8675 -94.4375 162.5475 -94.4375 161.1875 C-95.4275 161.14625 -96.4175 161.105 -97.4375 161.0625 C-103.02107021 160.24704958 -107.45322973 156.8331937 -110.796875 152.375 C-114.82610936 145.6012147 -115.13936374 138.91817304 -114.4375 131.1875 C-112.6605638 125.12101719 -107.55115878 120.60789428 -102.4375 117.1875 C-97.89836365 115.07915798 -93.48329273 113.1875 -88.4375 113.1875 C-88.4375 112.5275 -88.4375 111.8675 -88.4375 111.1875 C-89.0975 110.98125 -89.7575 110.775 -90.4375 110.5625 C-101.25773 105.60322792 -107.20668465 97.69844659 -111.45703125 86.859375 C-115.24109846 76.54741495 -115.21456812 62.58649336 -110.69140625 52.5 C-110.27761719 51.736875 -109.86382812 50.97375 -109.4375 50.1875 C-109.01339844 49.40375 -108.58929688 48.62 -108.15234375 47.8125 C-100.97850222 35.98265547 -90.58219377 30.67911035 -78 25.875 C-64.30900031 23.23287725 -42.34495597 20.73377202 -29.4375 27.1875 C-29.48970703 25.90166016 -29.48970703 25.90166016 -29.54296875 24.58984375 C-29.82499532 12.67757862 -29.82499532 12.67757862 -26.4375 7.1875 C-18.67724677 -0.57275323 -10.35179833 -0.20222784 0 0 Z " fill="#FDFEFF" transform="translate(294.4375,423.8125)"/>
<path d="M0 0 C2.26551535 1.66852144 4.25140374 3.41280417 6.25 5.390625 C6.85972656 5.96296875 7.46945312 6.5353125 8.09765625 7.125 C20.73436668 20.1227593 25.3433082 39.75510083 25.453125 57.3359375 C25.45882507 58.06827606 25.46452515 58.80061462 25.47039795 59.55514526 C25.47977824 61.09631946 25.48635389 62.63751308 25.49023438 64.17871094 C25.49989002 66.4893057 25.53095891 68.79898991 25.5625 71.109375 C25.70015798 90.47866993 21.46714852 112.10835135 7.9375 126.8359375 C-4.54214107 138.3333846 -18.30443697 140.04546784 -34.55664062 139.51367188 C-43.88264353 138.9904856 -50.91328511 134.57264663 -57.75 128.390625 C-61.58731594 123.85631155 -64.26533993 119.18079928 -65.75 113.390625 C-66.41 113.390625 -67.07 113.390625 -67.75 113.390625 C-67.75 138.800625 -67.75 164.210625 -67.75 190.390625 C-80.62 190.390625 -93.49 190.390625 -106.75 190.390625 C-106.75 126.370625 -106.75 62.350625 -106.75 -3.609375 C-93.55 -3.609375 -80.35 -3.609375 -66.75 -3.609375 C-66.255 6.785625 -66.255 6.785625 -65.75 17.390625 C-63.275 12.935625 -63.275 12.935625 -60.75 8.390625 C-58.25 5.578125 -58.25 5.578125 -55.75 3.390625 C-55.028125 2.730625 -54.30625 2.070625 -53.5625 1.390625 C-37.78609012 -9.82815536 -16.63546812 -9.73552964 0 0 Z " fill="#FDFEFF" transform="translate(304.75,201.609375)"/>
<path d="M0 0 C0.61875 0.57621094 1.2375 1.15242188 1.875 1.74609375 C2.473125 2.29136719 3.07125 2.83664062 3.6875 3.3984375 C18.12181274 18.12272528 22.15699329 40.39963326 22.11938477 60.12939453 C21.89220625 78.15816272 17.09343013 95.37071846 5.875 109.74609375 C5.11445313 110.72191406 4.35390625 111.69773437 3.5703125 112.703125 C-4.69361829 122.51404395 -18.2792122 129.21904988 -30.90014648 130.57617188 C-49.51663866 131.99799548 -68.51950924 131.54838047 -83.8828125 119.6015625 C-86.39684851 117.39896677 -88.77682714 115.12377687 -91.125 112.74609375 C-91.68832031 112.2046875 -92.25164062 111.66328125 -92.83203125 111.10546875 C-106.29417222 97.03948505 -109.31328765 76.3413278 -109.25 57.80859375 C-109.25386719 56.68001953 -109.25773437 55.55144531 -109.26171875 54.38867188 C-109.23855826 34.48223105 -104.25490703 16.60810236 -90.2734375 1.76953125 C-65.76962988 -21.30860029 -25.47441813 -21.66290481 0 0 Z " fill="#FDFEFF" transform="translate(446.125,463.25390625)"/>
<path d="M0 0 C13.2 0 26.4 0 40 0 C40 38.28 40 76.56 40 116 C43.42243954 112.57756046 45.67021061 110.29405219 48.12890625 106.41015625 C48.68296143 105.55019043 49.2370166 104.69022461 49.80786133 103.80419922 C50.38689209 102.89943848 50.96592285 101.99467773 51.5625 101.0625 C57.05885176 92.63993379 62.92997518 84.98350074 69.65234375 77.52148438 C72.47031477 74.34003593 75.10418184 71.00438901 77.76953125 67.6953125 C78.50558594 66.80585938 79.24164063 65.91640625 80 65 C80.46013489 64.34470306 80.92026978 63.68940613 81.39434814 63.01425171 C85.6236727 57.42415944 85.6236727 57.42415944 89.28617859 56.29544067 C91.92181287 56.07688123 94.44798018 56.09814181 97.08984375 56.21875 C98.03436905 56.23006958 98.97889435 56.24138916 99.95204163 56.25305176 C102.94931641 56.29760222 105.94168837 56.39791657 108.9375 56.5 C110.97714412 56.54015494 113.01686374 56.57665218 115.05664062 56.609375 C120.03963038 56.69726708 125.01898605 56.83516023 130 57 C128.22499983 60.80126069 125.80961929 63.54948983 122.9375 66.5625 C119.2907372 70.45783782 115.78494697 74.40210162 112.4375 78.5625 C108.63145267 83.29122547 104.60355697 87.75906666 100.4921875 92.22265625 C97.19058569 95.90202754 94.09123204 99.72703588 91.0078125 103.58984375 C89.11281147 105.86458234 87.12773666 107.94382399 85 110 C86.56058703 114.3059129 88.72331062 118.14477507 91.0625 122.0625 C91.49312744 122.78945068 91.92375488 123.51640137 92.36743164 124.26538086 C96.50744702 131.22797241 100.7262536 138.14287061 104.9375 145.0625 C111.05546109 155.11570211 117.13789658 165.18949468 123.16238403 175.29904175 C124.00704157 176.71559125 124.85295279 178.13139403 125.70016479 179.54641724 C126.88576398 181.52750955 128.06656527 183.51138255 129.24609375 185.49609375 C129.59740356 186.08135834 129.94871338 186.66662292 130.31066895 187.2696228 C132.18018856 190.42912943 133.73909377 193.55110974 135 197 C128.54099301 197.20301824 122.08280909 197.34300606 115.62133789 197.43945312 C113.42408506 197.47965963 111.22704594 197.53423585 109.03051758 197.60351562 C105.87006985 197.70069421 102.71245134 197.74595337 99.55078125 197.78125 C98.08020012 197.84318542 98.08020012 197.84318542 96.57991028 197.90637207 C89.92187366 197.91074227 89.92187366 197.91074227 87.33824158 195.35830688 C86.02168264 193.29223566 84.98784255 191.2397998 84 189 C83.48171631 188.05817871 82.96343262 187.11635742 82.42944336 186.14599609 C81.98737549 185.28055176 81.54530762 184.41510742 81.08984375 183.5234375 C80.5803418 182.53287354 80.07083984 181.54230957 79.54589844 180.52172852 C79.01512695 179.48330811 78.48435547 178.4448877 77.9375 177.375 C72.13141948 166.10412648 66.13113751 154.95166445 60.00878906 143.84985352 C59.31578099 142.57905919 58.64732965 141.29465931 58 140 C57.34 140 56.68 140 56 140 C54.52483679 141.65808345 53.119287 143.37846047 51.75 145.125 C47.3872051 150.67628041 47.3872051 150.67628041 45.47317505 152.27648926 C42.20010237 155.02872356 40.62147945 157.02771096 40.22705078 161.35302734 C40.1869846 163.01354779 40.17715966 164.67503295 40.1953125 166.3359375 C40.18169678 167.11622314 40.16808105 167.89650879 40.15405273 168.70043945 C40.11218338 171.5916727 40.12156342 174.48346564 40.125 177.375 C40.08375 183.85125 40.0425 190.3275 40 197 C26.8 197 13.6 197 0 197 C0 131.99 0 66.98 0 0 Z " fill="#FDFDFF" transform="translate(373,141)"/>
<path d="M0 0 C12.87 0 25.74 0 39 0 C48.45329485 27.5004941 57.03608102 55.33357174 63.5 83.6953125 C64.84505934 89.56787129 66.50116738 95.32716289 68.23046875 101.09716797 C69 104 69 104 69 107 C69.99 107 70.98 107 72 107 C72.09361816 106.32880127 72.18723633 105.65760254 72.28369141 104.96606445 C73.66914911 95.8460256 75.96200648 87.07483461 78.375 78.1875 C78.7661463 76.73125971 79.15677344 75.27487988 79.546875 73.81835938 C80.31783133 70.94262244 81.092326 68.06787533 81.86962891 65.19384766 C82.79071507 61.78451739 83.69766008 58.3716222 84.60046387 54.95741272 C86.25986613 48.68952716 87.98911877 42.45338217 89.875 36.25 C90.12475586 35.42218018 90.37451172 34.59436035 90.63183594 33.74145508 C92.69656078 26.92799199 94.82830956 20.13598521 96.99560547 13.35449219 C97.22908691 12.62262695 97.46256836 11.89076172 97.703125 11.13671875 C97.90583008 10.50467529 98.10853516 9.87263184 98.31738281 9.22143555 C99.25768713 6.16141088 100.12055235 3.07806676 101 0 C113.21 0 125.42 0 138 0 C136.79173801 5.43717898 135.67067766 10.364635 133.94726562 15.57470703 C133.34299492 17.41242172 133.34299492 17.41242172 132.72651672 19.28726196 C132.28649533 20.61080126 131.84640429 21.93431739 131.40625 23.2578125 C130.94179907 24.66526463 130.47775388 26.07285071 130.01408386 27.4805603 C129.0268768 30.4750906 128.03703377 33.46873074 127.04501343 36.46166992 C125.48908621 41.15599955 123.93891985 45.85221783 122.38989258 50.54882812 C120.81021992 55.33765574 119.23029632 60.12639887 117.64839172 64.91448975 C112.63180897 80.10000224 107.65541411 95.29850527 102.6875 110.5 C101.57115334 113.91465542 100.4546566 117.32926167 99.33796692 120.74380493 C98.68629559 122.73655362 98.03482047 124.72936649 97.3835907 126.72225952 C96.95334343 128.03826645 96.95334343 128.03826645 96.5144043 129.38085938 C96.26845016 130.13347046 96.02249603 130.88608154 95.76908875 131.66149902 C94.85409071 134.44365363 93.92615364 137.22153908 93 140 C77.49 140 61.98 140 46 140 C41.4998728 128.749682 41.4998728 128.749682 39.65673828 123.12133789 C39.4540439 122.50537971 39.25134953 121.88942152 39.04251289 121.25479794 C38.38202799 119.24508093 37.72612604 117.23390195 37.0703125 115.22265625 C36.59847818 113.78368337 36.12636453 112.34480205 35.6539917 110.90600586 C34.39918931 107.08125203 33.1484014 103.25519693 31.89846039 99.42885208 C30.60276189 95.46474625 29.30331386 91.50186971 28.00439453 87.53881836 C21.72904031 68.3860639 15.47031822 49.22774683 9.25048828 30.05688477 C8.99673431 29.27514389 8.74298035 28.49340302 8.48153687 27.68797302 C8.00028034 26.20529889 7.51932777 24.72252604 7.03872681 23.23963928 C5.88757831 19.69595948 4.72085265 16.15840439 3.52832031 12.62841797 C3.29339874 11.9317955 3.05847717 11.23517303 2.81643677 10.5174408 C2.17624033 8.62450159 1.53187472 6.73297386 0.88720703 4.84155273 C0 2 0 2 0 0 Z " fill="#FDFEFF" transform="translate(491,451)"/>
<path d="M0 0 C6.80330159 4.81702298 10.75183066 9.93799777 13 18 C13.30068313 20.99555678 13.32769598 23.97528873 13.3359375 26.984375 C13.3425943 27.84001038 13.3492511 28.69564575 13.35610962 29.57720947 C13.36620093 31.38250593 13.37092773 33.18783943 13.37060547 34.99316406 C13.3749647 37.72785371 13.41128199 40.46090934 13.44921875 43.1953125 C13.52398137 54.70730782 13.06329815 64.7588886 4.66796875 73.52734375 C-1.77741452 79.2179983 -7.88632905 79.57760556 -16.37109375 79.31640625 C-23.85743256 78.66366842 -28.91538298 76.60512962 -34.58984375 71.6953125 C-37.63205793 68.03791374 -38.25244701 64.21648315 -38.29052734 59.57055664 C-38.30328705 58.50917984 -38.31604675 57.44780304 -38.32919312 56.35426331 C-38.33141876 55.21770798 -38.33364441 54.08115265 -38.3359375 52.91015625 C-38.3459227 51.14423378 -38.3459227 51.14423378 -38.35610962 49.34263611 C-38.3662246 46.85547445 -38.370927 44.36828572 -38.37060547 41.88110352 C-38.37498011 38.0797859 -38.41131837 34.27962804 -38.44921875 30.47851562 C-38.45508682 28.0598998 -38.45905628 25.64127846 -38.4609375 23.22265625 C-38.47530853 22.08812515 -38.48967957 20.95359406 -38.50448608 19.78468323 C-38.46837467 13.53732003 -38.21378375 9.73958361 -34 5 C-24.76373773 -3.91251699 -11.48541363 -5.88730735 0 0 Z " fill="#68A0FF" transform="translate(276,230)"/>
<path d="M0 0 C6.05947068 3.21581357 9.21671109 8.66145221 11.64477539 14.91796875 C13.37261833 21.94442909 13.06669218 29.2130267 13.00195312 36.41088867 C12.9805421 39.2442003 13.00180364 42.07496948 13.02734375 44.90820312 C13.04392624 55.71701463 12.89389304 65.85048555 6.04296875 74.81640625 C-0.62765025 81.32432723 -6.86648095 81.72989203 -15.89453125 81.6640625 C-22.41405308 81.03880664 -27.24631671 78.47304569 -31.95703125 74.00390625 C-36.09863018 66.8803561 -36.97044088 60.88251812 -36.91796875 52.7890625 C-36.92083893 51.80070908 -36.92370911 50.81235565 -36.92666626 49.79405212 C-36.92869812 47.71401391 -36.92323006 45.63395621 -36.91064453 43.55395508 C-36.89459592 40.39164955 -36.9105148 37.2306253 -36.9296875 34.06835938 C-36.92770458 32.03775763 -36.92385989 30.00715667 -36.91796875 27.9765625 C-36.92404144 27.04191666 -36.93011414 26.10727081 -36.93637085 25.14430237 C-36.85467124 17.41664184 -35.63690132 9.54662627 -30.15234375 3.66796875 C-20.75222473 -4.11299101 -11.01047336 -4.45698992 0 0 Z " fill="#69A0FF" transform="translate(414.51953125,481.68359375)"/>
<path d="M0 0 C26.07 0 52.14 0 79 0 C79 12.54 79 25.08 79 38 C52.93 38 26.86 38 0 38 C0 25.46 0 12.92 0 0 Z " fill="#FEFEFF" transform="translate(527,238)"/>
<path d="M0 0 C1.09203735 -0.00960754 2.18407471 -0.01921509 3.3092041 -0.02911377 C4.50074097 -0.03336365 5.69227783 -0.03761353 6.91992188 -0.04199219 C8.14014038 -0.04769226 9.36035889 -0.05339233 10.61755371 -0.05926514 C13.21019621 -0.068737 15.80285086 -0.07525774 18.39550781 -0.07910156 C22.34396824 -0.08875786 26.29189738 -0.11974096 30.24023438 -0.15136719 C32.75846045 -0.15790189 35.27669025 -0.16315052 37.79492188 -0.16699219 C38.97026489 -0.17933899 40.14560791 -0.19168579 41.35656738 -0.20440674 C48.39859578 -0.18549089 55.73037354 -0.04799207 61.54089355 4.43621826 C64.05426967 7.06478806 64.87722746 9.08102194 65.38867188 12.66113281 C64.82905761 16.57843266 64.13785604 18.89618806 61.88867188 22.16113281 C52.5859166 28.85911661 41.85689552 28.48171387 30.86035156 28.421875 C28.52577547 28.41118822 26.1919741 28.42179709 23.85742188 28.43457031 C1.05897665 28.45701017 1.05897665 28.45701017 -6.11132812 22.16113281 C-8.81557298 18.95873759 -9.99584119 16.94066961 -10.61132812 12.78613281 C-9.6171925 5.57864953 -7.57485181 0.05357105 0 0 Z " fill="#6BA2FF" transform="translate(214.111328125,593.8388671875)"/>
<path d="M0 0 C4.26041433 3.82567817 6.78521738 7.22895216 7.23828125 13.07421875 C7.51336766 26.46658331 7.51336766 26.46658331 3 32 C-4.1328661 38.02330915 -11.53879429 38.46573251 -20.55078125 38.3125 C-26.86825258 37.74013567 -31.73572353 35.7595607 -36 31 C-39.1879297 26.21810546 -39.18146334 22.34781151 -39.25 16.625 C-39.27578125 15.33851563 -39.3015625 14.05203125 -39.328125 12.7265625 C-38.88332932 7.67495437 -37.39021208 4.39021208 -33.8125 0.8125 C-23.60289469 -5.76702342 -10.52413368 -6.53484113 0 0 Z " fill="#69A1FF" transform="translate(257,478)"/>
</svg>
