<?xml version="1.0" encoding="UTF-8" standalone="no"?>
<!DOCTYPE svg PUBLIC "-//W3C//DTD SVG 1.1//EN" "http://www.w3.org/Graphics/SVG/1.1/DTD/svg11.dtd">
<svg width="100%" height="100%" viewBox="0 0 128 128" version="1.1" xmlns="http://www.w3.org/2000/svg" xmlns:xlink="http://www.w3.org/1999/xlink" xml:space="preserve" xmlns:serif="http://www.serif.com/" style="fill-rule:evenodd;clip-rule:evenodd;stroke-linecap:round;stroke-linejoin:round;stroke-miterlimit:1.5;">
    <g transform="matrix(0.977775,0,0,1.048982,3.377832,0.199725)">
        <path d="M62,36.4C71.474,21 90.421,21 99.895,28.7C109.369,36.4 109.369,51.8 99.895,67.2C93.263,78.75 76.211,90.3 62,98C47.789,90.3 30.737,78.75 24.105,67.2C14.632,51.8 14.632,36.4 24.105,28.7C33.579,21 52.526,21 62,36.4Z" style="fill:none;stroke:rgb(255,0,0);stroke-width:5.92px;"/>
    </g>
    <g transform="matrix(1.011491,0,0,0.997181,-0.735422,0.180429)">
        <path d="M27,69L40,69L48,47L55,84L60,55L67,78L75,41L84,80L89,69L102,69" style="fill:none;stroke:rgb(255,0,0);stroke-width:3.98px;"/>
    </g>
</svg>
