<?xml version="1.0" encoding="UTF-8" standalone="no"?>
<!DOCTYPE svg PUBLIC "-//W3C//DTD SVG 1.1//EN" "http://www.w3.org/Graphics/SVG/1.1/DTD/svg11.dtd">
<svg width="100%" height="100%" viewBox="0 0 128 128" version="1.1" xmlns="http://www.w3.org/2000/svg" xmlns:xlink="http://www.w3.org/1999/xlink" xml:space="preserve" xmlns:serif="http://www.serif.com/" style="fill-rule:evenodd;clip-rule:evenodd;stroke-linecap:round;stroke-linejoin:round;stroke-miterlimit:1.5;">
    <g transform="matrix(0.873418,-0,0,-0.983333,13.778481,146.916667)">
        <path d="M97,95L18,95L31.969,35L83.031,35L97,95Z" style="fill:none;stroke:rgb(255,220,0);stroke-width:4.3px;"/>
    </g>
    <g transform="matrix(1,0,0,1,0,5.5)">
        <path d="M34,48L33,15L39,15L40,48" style="fill:none;stroke:rgb(255,220,0);stroke-width:4px;"/>
    </g>
    <g transform="matrix(1,0,0,1,0,5.5)">
        <path d="M46,48L46,22L53,22L53,48" style="fill:none;stroke:rgb(255,220,0);stroke-width:4px;"/>
    </g>
    <g transform="matrix(1,0,0,1,0,5.5)">
        <path d="M58,48L58,18L64,18L64,48" style="fill:none;stroke:rgb(255,220,0);stroke-width:4px;"/>
    </g>
    <g transform="matrix(1,0,0,1,0,5.5)">
        <path d="M70,48L70,31.5L75,31.5L75,48" style="fill:none;stroke:rgb(255,220,0);stroke-width:4px;"/>
    </g>
    <g transform="matrix(1,0,0,1,0,5.5)">
        <path d="M80,48L80,10L86,10L86,48" style="fill:none;stroke:rgb(255,220,0);stroke-width:4px;"/>
    </g>
    <g transform="matrix(1,0,0,1,0,5.5)">
        <path d="M92,48L92,24L97,24L97,46" style="fill:none;stroke:rgb(255,220,0);stroke-width:4px;"/>
    </g>
    <g transform="matrix(1,0,0,1,-3,-3)">
        <circle cx="68" cy="84" r="15" style="fill:none;stroke:rgb(255,220,0);stroke-width:4px;"/>
    </g>
</svg>
