<?xml version="1.0" encoding="UTF-8" standalone="no"?>
<!DOCTYPE svg PUBLIC "-//W3C//DTD SVG 1.1//EN" "http://www.w3.org/Graphics/SVG/1.1/DTD/svg11.dtd">
<svg width="100%" height="100%" viewBox="0 0 128 128" version="1.1" xmlns="http://www.w3.org/2000/svg" xmlns:xlink="http://www.w3.org/1999/xlink" xml:space="preserve" xmlns:serif="http://www.serif.com/" style="fill-rule:evenodd;clip-rule:evenodd;stroke-linecap:round;stroke-linejoin:round;stroke-miterlimit:1.5;">
    <g transform="matrix(1,0,0,1,25,10.5)">
        <circle cx="39" cy="89" r="10" style="fill:none;stroke:rgb(74,255,209);stroke-width:6px;"/>
    </g>
    <g transform="matrix(1,0,0,1,22,-32)">
        <circle cx="39" cy="89" r="10" style="fill:none;stroke:rgb(74,255,209);stroke-width:6px;"/>
    </g>
    <g transform="matrix(1,0,0,1,-2,15.5)">
        <path d="M38,23L94,13" style="fill:none;stroke:rgb(74,255,209);stroke-width:4px;"/>
    </g>
    <g transform="matrix(1,0,0,1,-2,15.5)">
        <path d="M104,23L66,74" style="fill:none;stroke:rgb(74,255,209);stroke-width:4px;"/>
    </g>
    <g transform="matrix(1,0,0,1,14,-20.5)">
        <circle cx="88" cy="49" r="10" style="fill:none;stroke:rgb(74,255,209);stroke-width:6px;"/>
    </g>
    <g transform="matrix(1,0,0,1,-13,8.5)">
        <circle cx="39" cy="30" r="10" style="fill:none;stroke:rgb(74,255,209);stroke-width:6px;"/>
    </g>
    <path d="M26,48.5L54,50" style="fill:none;stroke:rgb(74,255,209);stroke-width:4px;"/>
    <path d="M58,89.5L67,64" style="fill:none;stroke:rgb(74,255,209);stroke-width:4px;"/>
</svg>
