<?xml version="1.0" encoding="UTF-8" standalone="no"?>
<!DOCTYPE svg PUBLIC "-//W3C//DTD SVG 1.1//EN" "http://www.w3.org/Graphics/SVG/1.1/DTD/svg11.dtd">
<svg width="100%" height="100%" viewBox="0 0 128 128" version="1.1" xmlns="http://www.w3.org/2000/svg" xmlns:xlink="http://www.w3.org/1999/xlink" xml:space="preserve" xmlns:serif="http://www.serif.com/" style="fill-rule:evenodd;clip-rule:evenodd;stroke-linecap:round;stroke-linejoin:round;stroke-miterlimit:1.5;">
    <g transform="matrix(1.19365,0,0,1.19365,-13.862655,-15.456142)">
        <path d="M64,100C32.872,100.059 20.068,60.262 52,47L43.75,33" style="fill:none;stroke:rgb(0,176,0);stroke-width:5.03px;"/>
        <g transform="matrix(-1,0,0,1,128,0)">
            <path d="M64,100C31.039,102.71 18.105,62.765 52,47L44,33C60.505,36.366 67.918,36.234 84.25,33" style="fill:none;stroke:rgb(0,176,0);stroke-width:5.03px;"/>
        </g>
    </g>
    <g transform="matrix(1.19365,0,0,1.19365,-15.951542,-16.052967)">
        <path d="M49.5,84L49.5,64C56.991,64.083 61.149,63.708 61.267,67.39C61.422,72.208 57.732,71.015 49.5,71L60,84" style="fill:none;stroke:rgb(0,176,0);stroke-width:3.35px;"/>
    </g>
    <g transform="matrix(1.19365,0,0,1.19365,-15.951542,-16.052967)">
        <path d="M69,84L69,64L76,77L82,64L82,84" style="fill:none;stroke:rgb(0,176,0);stroke-width:3.35px;"/>
    </g>
    <g transform="matrix(1.19365,0,0,1.19365,-13.862655,-12.472017)">
        <path d="M51,44L85,44L97,40" style="fill:none;stroke:rgb(0,176,0);stroke-width:3.35px;"/>
    </g>
    <g transform="matrix(1.19365,0,0,1.19365,-13.862655,-12.472017)">
        <path d="M95.923,52L85,44" style="fill:none;stroke:rgb(0,176,0);stroke-width:3.35px;"/>
    </g>
</svg>
