<svg xmlns="http://www.w3.org/2000/svg" xml:space="preserve" style="fill-rule:evenodd;clip-rule:evenodd;stroke-linecap:round;stroke-linejoin:round;stroke-miterlimit:1.5" viewBox="0 0 128 128"><path fill="none" d="M79.84 45.637c-.373-8 2.73-16.185 8.743-21.658-1.822 7.592-.439 18.171 5.124 26.754s14.211 13.48 21.339 14.074c-7.781 5.185-17.437 5.063-24.731.204.207-9.41-3.661-16.369-10.475-19.374" style="fill:#ebebeb;fill-opacity:0;stroke:#000;stroke-width:4.77px" transform="matrix(.87778 0 0 .79918 4.73 12.461)"/><path fill="none" d="M39 104.992c-10.532-.32-19-10.723-19-23.492C20 68.53 28.738 58 39.5 58c2.45 0 4.796.546 6.957 1.542C50.787 50.378 60.377 44 71.5 44 84.584 44 92 54 90 69c12-2 20 5.93 20 15.5 0 11.093-6.676 20.14-15 20.49v.01H39z" style="fill:#ebebeb;fill-opacity:0;stroke:#000;stroke-width:4.77px" transform="matrix(.87778 0 0 .79918 4.73 12.461)"/></svg>