<?xml version="1.0" encoding="UTF-8" standalone="no"?>
<!DOCTYPE svg PUBLIC "-//W3C//DTD SVG 1.1//EN" "http://www.w3.org/Graphics/SVG/1.1/DTD/svg11.dtd">
<svg width="100%" height="100%" viewBox="0 0 128 128" version="1.1" xmlns="http://www.w3.org/2000/svg" xmlns:xlink="http://www.w3.org/1999/xlink" xml:space="preserve" xmlns:serif="http://www.serif.com/" style="fill-rule:evenodd;clip-rule:evenodd;stroke-linecap:round;stroke-linejoin:round;stroke-miterlimit:1.5;">
    <rect x="0" y="0" width="128" height="128" style="fill:white;"/>
    <g transform="matrix(0.87778,0,0,0.79918,6.944,-13.101)">
        <path d="M39,104.992C28.468,104.672 20,94.269 20,81.5C20,68.53 28.738,58 39.5,58C41.95,58 44.296,58.546 46.457,59.542C50.787,50.378 60.377,44 71.5,44C84.584,44 92,54 90,69C102,67 110,74.93 110,84.5C110,95.593 103.324,104.64 95,104.99L95,105L39,105L39,104.992Z" style="fill:white;stroke:black;stroke-width:4.77px;"/>
    </g>
    <g id="reuse-0" transform="matrix(1,0,0,1,-2.5,-5.063)">
        <path d="M47.5,84C47.5,84 54,92.75 54,96.5C54,100.087 51.087,103 47.5,103C43.935,102.998 41.002,100.065 41,96.5C41,92.75 47.5,84 47.5,84" style="fill:white;stroke:black;stroke-width:4px;"/>
    </g>
    <g id="reuse-01" serif:id="reuse-0" transform="matrix(1,0,0,1,17.5,2.938)">
        <path d="M47.5,84C47.5,84 54,92.75 54,96.5C54,100.087 51.087,103 47.5,103C43.935,102.998 41.002,100.065 41,96.5C41,92.75 47.5,84 47.5,84" style="fill:white;stroke:black;stroke-width:4px;"/>
    </g>
    <g id="reuse-02" serif:id="reuse-0" transform="matrix(1,0,0,1,35.5,-8.063)">
        <path d="M47.5,84C47.5,84 54,92.75 54,96.5C54,100.087 51.087,103 47.5,103C43.935,102.998 41.002,100.065 41,96.5C41,92.75 47.5,84 47.5,84" style="fill:white;stroke:black;stroke-width:4px;"/>
    </g>
</svg>
