<svg xmlns="http://www.w3.org/2000/svg" xmlns:xlink="http://www.w3.org/1999/xlink" xml:space="preserve" style="fill-rule:evenodd;clip-rule:evenodd;stroke-linecap:round;stroke-linejoin:round;stroke-miterlimit:1.5" viewBox="0 0 128 128"><defs><path id="reuse-0" d="M64 31V20"/></defs><use xlink:href="#reuse-0" style="fill:none;stroke:#000;stroke-width:3.65px" transform="rotate(225 37.338 .728)scale(-.5 .5909)"/><path fill="none" d="M80.79 100.998C92.023 96.661 100 85.755 100 73c0-16.557-13.443-30-30-30-15.513 0-28.292 11.8-29.842 26.907 20.363 2.607 34.895 13.72 40.632 31.091" style="fill:#ebebeb;fill-opacity:0;stroke:#000;stroke-width:6px" transform="matrix(0 -.33333 -.33333 0 107.583 76.208)"/><path fill="none" d="M39 104.992c-10.532-.32-19-10.723-19-23.492C20 68.53 28.738 58 39.5 58c2.45 0 4.796.546 6.957 1.542C50.787 50.378 60.377 44 71.5 44 84.584 44 92 54 90 69c12-2 20 5.93 20 15.5 0 11.093-6.676 20.14-15 20.49v.01H39z" style="fill:#ebebeb;fill-opacity:0;stroke:#000;stroke-width:4.77px" transform="matrix(.87778 0 0 .79918 5.194 13.211)"/><use xlink:href="#reuse-0" style="fill:none;stroke:#000;stroke-width:3.65px" transform="rotate(135 13.912 48.466)scale(-.5 .5909)"/><use xlink:href="#reuse-0" style="fill:none;stroke:#000;stroke-width:3.65px" transform="rotate(135 21.678 67.216)scale(-.5 .5909)"/><use xlink:href="#reuse-0" style="fill:none;stroke:#000;stroke-width:3.65px" transform="matrix(.5 0 0 -.5909 51.25 49.193)"/><use xlink:href="#reuse-0" style="fill:none;stroke:#000;stroke-width:3.65px" transform="matrix(0 -.5 -.5909 0 117.068 84.875)"/></svg>