<svg xmlns="http://www.w3.org/2000/svg" xmlns:xlink="http://www.w3.org/1999/xlink" xml:space="preserve" style="fill-rule:evenodd;clip-rule:evenodd;stroke-linecap:round;stroke-linejoin:round;stroke-miterlimit:1.5" viewBox="0 0 128 128"><defs><path id="reuse-0" fill="none" d="M47.5 84S54 92.75 54 96.5c0 3.587-2.913 6.5-6.5 6.5a6.504 6.504 0 0 1-6.5-6.5c0-3.75 6.5-12.5 6.5-12.5"/></defs><path fill="none" d="M39 104.992c-10.532-.32-19-10.723-19-23.492C20 68.53 28.738 58 39.5 58c2.45 0 4.796.546 6.957 1.542C50.787 50.378 60.377 44 71.5 44 84.584 44 92 54 90 69c12-2 20 5.93 20 15.5 0 11.093-6.676 20.14-15 20.49v.01H39z" style="fill:#ebebeb;fill-opacity:0;stroke:#000;stroke-width:4.77px" transform="matrix(.87778 0 0 .79918 6.944 -13.101)"/><path d="M38 75.938 26 94h13l-7 14 21-21.062H40l8-11z" style="fill:none;stroke:#000;stroke-width:4px" transform="translate(6 -5)"/><use xlink:href="#reuse-0" style="fill:#ebebeb;fill-opacity:0;stroke:#000;stroke-width:4px" transform="translate(17.5 2.938)"/><use xlink:href="#reuse-0" style="fill:#ebebeb;fill-opacity:0;stroke:#000;stroke-width:4px" transform="translate(35.5 -8.063)"/></svg>